<?xml version="1.0" standalone="no"?>
<!DOCTYPE svg PUBLIC "-//W3C//DTD SVG 20010904//EN"
 "http://www.w3.org/TR/2001/REC-SVG-20010904/DTD/svg10.dtd">
<svg version="1.0" xmlns="http://www.w3.org/2000/svg"
 width="700.000000pt" height="700.000000pt" viewBox="0 0 700.000000 700.000000"
 preserveAspectRatio="xMidYMid meet">
<metadata>
Created by potrace 1.11, written by Peter Selinger 2001-2013
</metadata>
<g transform="translate(0.000000,700.000000) scale(0.100000,-0.100000)"
fill="#000000" stroke="none">
<path d="M4960 6193 c-329 -46 -558 -139 -804 -326 -74 -57 -231 -206 -283
-270 -221 -269 -370 -580 -434 -907 -18 -90 -23 -151 -23 -285 -1 -172 3 -216
30 -332 27 -119 82 -242 151 -340 23 -34 43 -66 43 -71 0 -5 -20 -57 -44 -115
-25 -58 -66 -165 -92 -237 l-47 -132 -37 93 c-20 52 -61 146 -92 209 l-57 115
19 42 c21 49 56 186 65 258 33 264 -55 584 -233 849 -71 107 -228 273 -322
342 -174 127 -376 213 -572 241 -61 9 -251 9 -324 0 -232 -28 -490 -142 -729
-321 -110 -83 -384 -331 -374 -339 2 -2 40 -16 84 -31 295 -101 441 -193 655
-411 126 -128 159 -167 375 -435 60 -74 111 -137 114 -140 3 -3 31 -36 62 -75
178 -221 366 -371 515 -410 160 -42 328 17 477 169 16 15 30 26 32 24 26 -26
141 -321 159 -409 21 -101 35 -184 42 -239 4 -36 8 -496 9 -1022 1 -527 4
-960 7 -963 5 -5 136 -9 203 -6 21 1 21 3 20 919 0 504 3 951 7 992 14 130 55
297 124 495 33 92 135 348 144 358 4 5 45 -12 91 -37 201 -108 376 -110 553
-8 77 44 224 191 301 302 59 84 175 266 175 276 0 2 10 21 23 42 23 36 67 117
177 327 29 55 60 114 70 130 9 17 43 80 75 140 133 251 299 507 436 670 137
165 243 257 452 394 53 35 97 66 97 70 -1 11 -234 143 -375 211 -161 79 -344
144 -460 164 -52 9 -89 16 -115 22 -28 7 -331 12 -370 7z m605 -298 c113 -17
361 -81 398 -102 4 -3 -25 -25 -65 -51 -312 -196 -574 -490 -763 -857 -61
-117 -169 -322 -293 -555 -214 -403 -377 -603 -536 -658 -87 -29 -195 -12
-304 50 l-53 30 72 136 c203 388 432 721 697 1010 156 171 410 407 547 507 22
17 42 32 45 35 3 3 30 25 60 49 90 71 -11 28 -135 -58 -56 -39 -247 -182 -255
-191 -3 -3 -30 -25 -60 -50 -30 -25 -57 -47 -60 -50 -3 -3 -43 -39 -90 -79
-102 -90 -380 -367 -470 -470 -36 -40 -80 -90 -98 -110 -60 -65 -257 -313
-345 -434 l-85 -117 -20 27 c-43 61 -87 183 -100 278 -13 91 -7 287 11 382 19
98 59 228 100 328 31 73 94 194 113 216 8 8 14 19 14 23 0 4 28 47 62 94 84
118 272 304 380 375 191 126 410 206 643 233 33 4 85 10 115 15 60 8 411 4
475 -6z m-3384 -860 c184 -18 424 -127 563 -254 74 -69 81 -76 132 -136 153
-181 248 -417 253 -625 1 -53 -14 -168 -23 -177 -3 -3 -49 39 -103 92 -391
388 -825 638 -1296 749 -56 13 -118 26 -137 29 l-35 6 45 -24 c25 -13 52 -27
60 -31 159 -81 499 -299 640 -410 263 -210 543 -471 642 -600 l47 -61 -37 -38
c-86 -88 -188 -125 -282 -100 -63 17 -100 37 -172 97 -98 82 -152 142 -397
443 -295 361 -402 478 -547 600 -32 28 -64 55 -71 62 -7 6 -45 33 -84 59 l-71
47 23 19 c13 10 61 41 106 69 180 110 361 173 533 186 41 3 76 6 78 8 3 2 30
0 133 -10z"/>
</g>
</svg>
