<?xml version="1.0" encoding="utf-8"?>
<!-- Generator: Adobe Illustrator 21.0.2, SVG Export Plug-In . SVG Version: 6.00 Build 0)  -->
<svg version="1.1" id="Layer_1" xmlns="http://www.w3.org/2000/svg" xmlns:xlink="http://www.w3.org/1999/xlink" x="0px" y="0px"
	 viewBox="0 0 512 512" style="enable-background:new 0 0 512 512;" xml:space="preserve">
<style type="text/css">
	.st0{fill:#91DC5A;stroke:#070707;stroke-miterlimit:10;}
</style>
<path class="st0" d="M402.3,58.9c-37.8,0-73.1,11.4-102.2,32.9c-25.7,19-44.8,45.4-52.3,72.2c-8.6,30.8-1.6,58.5,18.7,76.9
	c-7,12.2-13.5,24.9-18.6,37.1c-4.7-11.7-11-22.2-18.1-31.6c10.1-16,11.5-35.5,3.6-55.6c-7.4-18.9-22.5-36.2-42.5-49
	c-21.5-13.7-46.8-21-73.3-21c-33.9,0-68.7,12.2-100.5,35.3L0,168.7l20.4,5.5c33.7,9.1,60.5,35.1,84.2,58
	c24.2,23.4,47.1,45.5,73.5,45.5c0,0,0,0,0,0c13,0,25.5-5.2,37.9-15.9c12,16.9,20.5,37.5,20.5,62.7v128.5h20.2c0,0,0-124.3,0-130.9
	c0-16.2,9.5-40,26.4-69.7c12.5,6.8,24.2,10.1,35.7,10.1c37.2,0,61.4-35.6,87-73.3c22.9-33.6,48.8-71.8,87.3-91.5l18.8-9.6l-19.3-8.6
	C462.2,65.8,431.8,58.9,402.3,58.9L402.3,58.9z M178.2,257.5C178.2,257.5,178.2,257.5,178.2,257.5c-18.3,0-37.4-18.4-59.5-39.8
	c-20.9-20.2-44.1-42.6-73.2-55.8c23.6-13.7,47.8-20.7,72.1-20.7c48.8,0,85.7,28.7,96.9,57.1c2.9,7.4,5.9,19.5,1,31.7
	c-13.3-11.2-30.8-23.9-52.6-35.2c-35.2-18.2-67.8-25.7-91-29c34.6,13.7,58,27,72.4,36c4.7,3,9.1,5.9,9.8,6.4
	c12.8,8.1,32.3,20.3,49,38c-2.4,2.4-6.6,5.9-12.8,8.4C185.6,256.7,181.2,257.3,178.2,257.5z M389.1,177.8
	c-23.5,34.6-43.8,64.4-70.3,64.4c-7.8,0-16.1-2.4-25.3-7.3c0.7-1.2,1.7-2.7,2.8-4.4c54.8-86,133.6-121.3,132.7-122.7
	c-0.7-1.2-54.5,23.6-114.1,77.6c-15.7,14.2-28.3,27.3-37.7,37.6c-12.2-13.2-15.9-32-9.8-53.5c6.3-22.6,22.7-45,44.8-61.4
	c33-24.5,68-27.1,90.1-28.9c32.7-2.6,61.1,2.4,82.7,8.7c-16.7,7.4-40.6,20.4-62.1,43.5C410.5,144.7,409.8,147.5,389.1,177.8z
	 M303,200.9 M92,170.9 M-119,353.9 M701,336.9 M303,200.9 M835,390.9"/>
</svg>
