<?xml version="1.0" encoding="utf-8"?>
<!-- Generator: Adobe Illustrator 21.0.2, SVG Export Plug-In . SVG Version: 6.00 Build 0)  -->
<svg version="1.1" id="Layer_1" xmlns="http://www.w3.org/2000/svg" xmlns:xlink="http://www.w3.org/1999/xlink" x="0px" y="0px"
	 viewBox="0 0 512 512" style="enable-background:new 0 0 512 512;" xml:space="preserve">
<style type="text/css">
	.st0{fill:#4CAF50;stroke:#070707;stroke-miterlimit:10;}
</style>
<path class="st0" d="M373.4,59c-29.5,0-57.1,11.6-79.9,33.4c-20.1,19.3-35,46.1-40.9,73.3c-6.7,31.3-1.3,59.4,14.6,78.1
	c-5.5,12.4-10.5,25.3-14.5,37.7c-3.7-11.9-8.6-22.5-14.1-32.1c7.9-16.2,9-36,2.8-56.4c-5.8-19.2-17.6-36.7-33.2-49.7
	c-16.8-13.9-36.6-21.3-57.3-21.3c-26.5,0-53.7,12.4-78.5,35.8L59,170.4L75,176c26.3,9.2,47.3,35.6,65.8,58.9
	c18.9,23.8,36.8,46.2,57.4,46.2l0,0c10.2,0,19.9-5.3,29.6-16.1c9.4,17.2,16,38.1,16,63.6V459h15.8c0,0,0-126.2,0-132.9
	c0-16.4,7.4-40.6,20.6-70.7c9.8,6.9,18.9,10.3,27.9,10.3c29.1,0,48-36.1,68-74.4c17.9-34.1,38.1-72.9,68.2-92.9l14.7-9.7L444,79.9
	C420.2,66,396.5,59,373.4,59L373.4,59z M198.3,260.6L198.3,260.6c-14.3,0-29.2-18.7-46.5-40.4c-16.3-20.5-34.5-43.2-57.2-56.6
	c18.4-13.9,37.4-21,56.3-21c38.1,0,67,29.1,75.7,58c2.3,7.5,4.6,19.8,0.8,32.2c-10.4-11.4-24.1-24.3-41.1-35.7
	c-27.5-18.5-53-26.1-71.1-29.4c27,13.9,45.3,27.4,56.6,36.5c3.7,3,7.1,6,7.7,6.5c10,8.2,25.2,20.6,38.3,38.6c-1.9,2.4-5.2,6-10,8.5
	C204.1,259.8,200.6,260.4,198.3,260.6z M363.1,179.7c-18.4,35.1-34.2,65.4-54.9,65.4c-6.1,0-12.6-2.4-19.8-7.4
	c0.5-1.2,1.3-2.7,2.2-4.5c42.8-87.3,104.4-123.1,103.7-124.5c-0.5-1.2-42.6,24-89.2,78.8c-12.3,14.4-22.1,27.7-29.5,38.2
	c-9.5-13.4-12.4-32.5-7.7-54.3c4.9-22.9,17.7-45.7,35-62.3c25.8-24.9,53.1-27.5,70.4-29.3C399,77,421.2,82,438,88.4
	c-13,7.5-31.7,20.7-48.5,44.2C379.8,146.1,379.3,148.9,363.1,179.7z"/>
</svg>
